<?xml version="1.0" standalone="no"?>
<!DOCTYPE svg PUBLIC "-//W3C//DTD SVG 20010904//EN"
 "http://www.w3.org/TR/2001/REC-SVG-20010904/DTD/svg10.dtd">
<svg version="1.0" xmlns="http://www.w3.org/2000/svg"
 width="841.000000pt" height="297.000000pt" viewBox="0 0 841.000000 297.000000"
 preserveAspectRatio="xMidYMid meet">

<g transform="translate(0.000000,297.000000) scale(0.100000,-0.100000)"
fill="#000000" stroke="none">
<path d="M67 2764 c-4 -4 -7 -18 -7 -31 0 -22 4 -23 60 -23 l60 0 2 -192 3
-193 25 0 25 0 3 193 2 192 61 0 c60 0 60 0 57 28 l-3 27 -141 3 c-77 1 -143
-1 -147 -4z"/>
<path d="M432 2762 c-9 -7 -12 -58 -10 -223 l3 -214 28 -3 27 -3 0 100 0 101
120 0 119 0 3 -97 3 -98 30 0 30 0 3 214 c1 126 -2 219 -7 224 -5 5 -21 7 -35
3 -26 -6 -26 -8 -26 -96 l0 -90 -120 0 -120 0 0 95 c0 84 -2 95 -17 95 -10 0
-24 -4 -31 -8z"/>
<path d="M884 2757 c-2 -7 -3 -107 -2 -222 l3 -210 120 0 120 0 3 28 3 27 -95
0 -96 0 0 70 0 69 78 3 c76 3 77 3 80 31 l3 27 -80 0 -81 0 0 65 0 65 89 0
c50 0 92 3 94 8 3 4 1 17 -4 30 -8 21 -13 22 -119 22 -80 0 -112 -3 -116 -13z"/>
<path d="M7040 2251 c-7 -13 -10 -263 -10 -741 0 -478 3 -728 10 -741 9 -17
22 -19 99 -19 62 0 92 4 100 13 7 10 12 164 13 510 l3 495 468 -512 c257 -282
481 -525 497 -541 24 -23 32 -26 45 -15 13 11 15 100 15 760 0 590 -3 750 -13
758 -11 10 -63 3 -174 -23 l-23 -5 -2 -501 -3 -500 -494 540 c-271 298 -499
541 -507 541 -7 0 -18 -9 -24 -19z"/>
<path d="M1422 2248 c-7 -7 -12 -15 -12 -19 0 -4 -40 -99 -89 -211 -528 -1205
-544 -1241 -525 -1255 19 -14 170 -18 191 -5 14 9 27 38 138 300 l78 182 244
-2 244 -3 33 -75 c18 -41 63 -148 101 -237 52 -124 73 -163 89 -167 11 -3 55
-6 97 -6 127 0 144 -65 -176 665 -63 144 -198 452 -290 665 -37 85 -72 161
-78 168 -12 15 -30 15 -45 0z m107 -631 c39 -92 71 -170 71 -172 0 -3 -70 -5
-156 -5 -121 0 -155 3 -151 13 23 54 127 298 138 320 7 15 16 24 19 20 4 -5
39 -83 79 -176z"/>
<path d="M2480 2210 c-167 -61 -270 -204 -270 -373 0 -220 126 -356 418 -452
154 -50 222 -121 222 -229 -1 -89 -42 -155 -125 -199 -65 -34 -179 -29 -275
11 -41 18 -101 53 -134 79 -83 68 -82 67 -98 60 -11 -4 -22 -37 -34 -101 -15
-82 -16 -97 -3 -112 28 -34 148 -104 225 -131 70 -24 93 -27 204 -28 113 0
131 3 188 26 193 82 295 261 262 463 -15 93 -53 170 -115 232 -61 61 -115 90
-265 143 -136 48 -193 81 -226 131 -68 102 -23 242 91 286 94 35 217 5 370
-90 23 -15 45 -22 53 -18 14 9 47 175 39 196 -7 18 -99 68 -177 96 -94 34
-272 39 -350 10z"/>
<path d="M5840 2210 c-41 -11 -118 -41 -170 -66 -81 -40 -109 -61 -185 -138
-103 -104 -161 -205 -195 -340 -25 -99 -27 -262 -4 -355 22 -90 92 -234 148
-303 87 -109 222 -199 367 -245 75 -24 100 -27 229 -27 130 0 154 3 230 27
223 71 395 228 479 438 42 105 55 192 48 329 -10 198 -73 338 -216 480 -102
102 -219 168 -352 200 -112 26 -275 26 -379 0z m324 -195 c100 -26 166 -65
247 -145 125 -125 165 -231 157 -426 -4 -109 -6 -116 -46 -197 -96 -194 -259
-303 -464 -312 -256 -10 -473 142 -549 385 -30 95 -28 231 4 331 56 176 202
316 380 364 69 18 199 19 271 0z"/>
<path d="M3369 2206 c-30 -7 -61 -16 -67 -20 -9 -5 -12 -177 -12 -710 0 -591
2 -705 14 -715 9 -8 46 -11 103 -9 l88 3 3 318 2 317 390 0 390 0 0 -301 c0
-188 4 -308 10 -320 9 -17 22 -19 100 -19 78 0 91 2 100 19 13 25 14 1420 1
1440 -8 12 -22 13 -93 2 -46 -7 -91 -17 -99 -21 -11 -8 -15 -62 -19 -302 l-5
-293 -385 0 -385 0 -3 313 -2 312 -38 -1 c-20 -1 -62 -7 -93 -13z"/>
<path d="M4900 2209 c-25 -4 -55 -11 -67 -14 l-23 -5 0 -714 c0 -642 2 -714
16 -720 23 -9 167 -7 182 2 10 7 12 160 10 733 l-3 724 -35 2 c-19 1 -55 -3
-80 -8z"/>
<path d="M72 2198 c-9 -9 -12 -182 -12 -719 0 -594 2 -708 14 -718 9 -8 46
-11 103 -9 l88 3 3 298 2 297 223 0 c160 0 226 3 235 12 16 16 16 170 0 186
-9 9 -75 12 -235 12 l-223 0 2 223 3 222 281 3 c215 2 283 5 287 15 5 14 -24
156 -36 175 -12 17 -717 18 -735 0z"/>
<path d="M5270 370 l0 -220 30 0 30 0 0 145 c0 80 4 145 8 145 5 0 74 -71 153
-157 l144 -157 3 223 c1 123 1 226 -2 228 -2 2 -15 1 -30 -3 l-25 -6 -3 -146
-3 -146 -144 157 c-79 86 -147 157 -152 157 -5 0 -9 -99 -9 -220z"/>
<path d="M7487 559 c-17 -41 -119 -272 -153 -348 -13 -29 -24 -55 -24 -58 0
-2 14 -3 32 -1 29 3 34 9 58 68 l26 65 78 0 77 0 27 -65 c25 -59 30 -65 60
-68 30 -3 31 -2 23 20 -26 63 -179 409 -184 414 -3 4 -12 -9 -20 -27z m43
-155 c11 -25 20 -50 20 -55 0 -5 -20 -9 -45 -9 -29 0 -45 4 -45 13 1 16 37 97
45 97 3 0 15 -21 25 -46z"/>
<path d="M6058 573 c-16 -4 -18 -23 -18 -214 l0 -209 30 0 30 0 0 90 0 90 120
0 120 0 0 -90 c0 -89 0 -90 25 -90 l25 0 0 215 c0 165 -3 215 -12 215 -30 -1
-37 -18 -40 -100 l-3 -85 -117 -3 -118 -3 0 96 c0 98 -1 99 -42 88z"/>
<path d="M6503 573 c-10 -3 -13 -45 -13 -161 0 -144 2 -160 23 -197 30 -54 77
-77 145 -72 61 4 96 27 123 77 16 30 19 58 19 198 0 146 -2 163 -16 158 -9 -3
-19 -6 -24 -6 -4 0 -10 -66 -12 -147 -5 -155 -14 -192 -52 -212 -44 -24 -108
-13 -128 22 -8 14 -15 79 -18 182 -5 165 -8 175 -47 158z"/>
<path d="M6926 561 c-94 -62 -68 -173 52 -221 68 -27 82 -41 82 -81 0 -61 -85
-80 -152 -34 l-38 25 -6 -25 c-8 -33 17 -61 65 -75 109 -30 191 21 191 118 0
53 -30 89 -99 119 -31 14 -64 32 -73 40 -34 30 -16 78 35 97 11 3 39 -3 64
-14 26 -11 47 -19 49 -18 1 2 4 14 6 28 7 52 -116 80 -176 41z"/>
<path d="M7218 573 c-16 -4 -18 -23 -18 -214 l0 -209 30 0 30 0 0 215 c0 224
1 219 -42 208z"/>
<path d="M7794 561 c-38 -23 -58 -70 -51 -117 8 -48 31 -72 97 -101 69 -31 90
-50 90 -80 0 -61 -87 -84 -153 -39 -40 27 -47 25 -47 -15 0 -22 8 -31 46 -49
64 -31 136 -23 179 20 25 25 30 38 30 78 0 68 -23 98 -106 134 -41 19 -71 38
-75 50 -10 31 4 64 31 76 25 11 47 7 118 -23 14 -6 17 -2 17 24 0 27 -5 34
-35 47 -47 19 -104 18 -141 -5z"/>
<path d="M4950 360 l0 -210 120 0 c66 0 120 4 120 9 0 5 3 16 6 25 5 13 -8 16
-88 18 l-93 3 -3 68 -3 67 76 0 c73 0 75 1 75 25 0 23 -3 24 -72 27 l-73 3 -3
63 -3 62 91 0 c89 0 91 1 88 23 -3 21 -7 22 -120 25 l-118 3 0 -211z"/>
<path d="M5700 545 c0 -22 4 -24 58 -27 l57 -3 3 -182 2 -183 25 0 25 0 2 183
3 182 58 3 c53 3 57 5 57 27 l0 25 -145 0 -145 0 0 -25z"/>
<path d="M8007 563 c-4 -3 -7 -15 -7 -25 0 -15 8 -18 60 -18 l60 0 0 -185 0
-185 30 0 30 0 0 185 0 185 61 0 c52 0 60 2 55 16 -3 9 -6 20 -6 25 0 10 -273
13 -283 2z"/>
</g>
</svg>
